<svg xmlns="http://www.w3.org/2000/svg" viewBox="0 0 180 180">
  <path fill="#1d1d1b" stroke-width="0" d="M180,90c0-8.94-7.67-13.55-13.26-16.91-.38-.23-.82-.49-1.26-.76.33-.51.65-1,.93-1.43,3.56-5.43,8.43-12.88,4.69-20.8-3.77-7.99-12.58-8.73-19-9.27-.47-.04-1.02-.09-1.57-.14.07-.57.15-1.14.22-1.63.9-6.5,2.14-15.41-4.62-20.93-6.75-5.51-14.96-2.3-20.96.03-.46.18-1,.39-1.54.59-.17-.53-.33-1.04-.47-1.49-1.96-6.3-4.64-14.94-13.14-16.91-8.37-1.95-14.35,4.54-18.72,9.27-.39.42-.84.91-1.3,1.39-.46-.49-.91-.98-1.3-1.4-4.37-4.73-10.36-11.22-18.71-9.27-8.51,1.97-11.19,10.61-13.14,16.91-.14.45-.3.97-.47,1.49-.54-.21-1.08-.41-1.54-.59-6-2.34-14.21-5.54-20.96-.04-6.77,5.52-5.53,14.42-4.62,20.93.07.49.15,1.05.22,1.63-.55.05-1.09.1-1.57.14-6.43.54-15.23,1.28-19.01,9.27-3.75,7.93,1.13,15.37,4.69,20.8.28.43.61.93.93,1.43-.44.27-.88.53-1.26.76-5.6,3.36-13.26,7.97-13.26,16.91s7.67,13.55,13.26,16.91c.38.23.82.49,1.26.76-.33.51-.65,1-.93,1.43-3.56,5.43-8.43,12.88-4.69,20.8,3.77,7.99,12.58,8.73,19,9.27.47.04,1.02.08,1.57.14-.07.58-.15,1.14-.22,1.63-.9,6.5-2.14,15.41,4.62,20.93,6.75,5.5,14.96,2.31,20.96-.03.46-.18,1-.39,1.54-.59.17.53.33,1.04.47,1.49,1.96,6.3,4.64,14.93,13.14,16.91,8.34,1.95,14.34-4.54,18.72-9.27.39-.42.84-.91,1.3-1.4.46.49.91.98,1.3,1.4,3.83,4.14,8.89,9.63,15.7,9.63.97,0,1.97-.11,3.01-.35,8.51-1.97,11.19-10.61,13.14-16.91.14-.45.3-.97.47-1.49.54.21,1.08.41,1.54.59,6,2.34,14.21,5.54,20.95.04,6.77-5.52,5.53-14.42,4.62-20.93-.07-.49-.15-1.05-.22-1.63.55-.05,1.1-.1,1.57-.14,6.43-.54,15.23-1.28,19-9.27,3.75-7.93-1.13-15.37-4.69-20.8-.28-.43-.61-.93-.93-1.44.44-.27.88-.53,1.26-.76,5.6-3.36,13.26-7.97,13.26-16.91ZM131.83,103.89c-1.53,4.82,1.14,11.88-1.71,15.89-2.89,4.05-10.3,3.62-14.27,6.57-3.93,2.92-5.8,10.28-10.52,11.84-4.55,1.51-10.28-3.27-15.33-3.27s-10.77,4.78-15.33,3.27c-4.72-1.57-6.59-8.92-10.52-11.84-3.97-2.95-11.38-2.52-14.27-6.57-2.86-4.01-.18-11.07-1.71-15.89-1.48-4.65-7.75-8.73-7.75-13.88s6.28-9.23,7.75-13.89c1.53-4.82-1.14-11.88,1.71-15.89,2.89-4.05,10.3-3.62,14.27-6.57,3.93-2.92,5.8-10.28,10.52-11.84,4.55-1.51,10.28,3.27,15.33,3.27s10.77-4.78,15.33-3.27c4.72,1.57,6.59,8.92,10.52,11.84,3.97,2.95,11.38,2.51,14.27,6.57,2.86,4.01.18,11.07,1.71,15.89,1.48,4.65,7.75,8.73,7.75,13.88s-6.28,9.23-7.75,13.89Z"/>
</svg>