<?xml version="1.0" encoding="UTF-8"?>
<svg xmlns="http://www.w3.org/2000/svg" viewBox="0 0 180 180">
  <g>
    <circle fill="#1d1d2b" stroke-width="0px" cx="90" cy="90" r="90"/>
    <path fill="#B4A6F2" stroke-width="0px" d="M169.23,89.46c-.84-4.2-2.21-8.3-3.71-12.45.16-3.9-.19-7.81-1.09-11.69-7.23-31.16-47.17-48.51-89.21-38.76C33.17,36.3,4.95,69.46,12.17,100.62c.78,3.36,1.96,6.54,3.46,9.56,3.02,15.85,12.54,30.35,25.37,38.33,12.13,7.55,27.68,10.06,47.32,7.6,3.52-.44,7.18-1.04,10.96-1.8,15.13-3.03,29.28-8.62,42.07-16.62,21.83-13.65,31.47-30.33,27.88-48.23ZM83.2,63.45c12.91-3.82,25.41-.13,28.16,8.23-1.09-.52-2.26-.97-3.5-1.34-6.08-1.84-13.31-1.7-20.37.4-7.06,2.09-13.21,5.91-17.31,10.76-2.12,2.51-3.59,5.17-4.38,7.85-.74-1.02-1.31-2.13-1.66-3.34-2.54-8.58,5.99-18.68,19.06-22.55ZM92.41,94.54c-7.05,2.09-13.98,1.93-19.27,0-.25-3.26,1.8-6.26,3.16-7.88,3.1-3.67,7.89-6.6,13.47-8.25,1.78-.53,3.57-.9,5.32-1.12,3.74-.47,7.34-.23,10.47.71,1.4.42,3.43,1.23,5.07,2.64-2.7,5.88-9.43,11.3-18.22,13.9ZM137.11,130.9c-11.97,7.48-25.23,12.72-39.4,15.56-22.84,4.58-40,3.02-52.49-4.75-5.08-3.16-9.61-7.66-13.26-12.95,17.16,12.11,42.87,16.77,69.42,10.61,29.27-6.79,51.82-24.92,60.4-45.82,1.54,13.58-6.75,26.13-24.67,37.34Z"/>
  </g>
</svg>